<?xml version="1.0" encoding="UTF-8" standalone="no"?>
<svg
   xmlns:dc="http://purl.org/dc/elements/1.1/"
   xmlns:cc="http://creativecommons.org/ns#"
   xmlns:rdf="http://www.w3.org/1999/02/22-rdf-syntax-ns#"
   xmlns:svg="http://www.w3.org/2000/svg"
   xmlns="http://www.w3.org/2000/svg"
   xmlns:sodipodi="http://sodipodi.sourceforge.net/DTD/sodipodi-0.dtd"
   xmlns:inkscape="http://www.inkscape.org/namespaces/inkscape"
   id="svg8"
   version="1.1"
   viewBox="0 0 12.7 12.7"
   height="48"
   width="48"
   sodipodi:docname="default_image.svg"
   inkscape:version="0.92.4 (5da689c313, 2019-01-14)">
  <sodipodi:namedview
     pagecolor="#ffffff"
     bordercolor="#666666"
     borderopacity="1"
     objecttolerance="10"
     gridtolerance="10"
     guidetolerance="10"
     inkscape:pageopacity="0"
     inkscape:pageshadow="2"
     inkscape:window-width="1440"
     inkscape:window-height="837"
     id="namedview13"
     showgrid="false"
     inkscape:zoom="12.618164"
     inkscape:cx="24"
     inkscape:cy="24"
     inkscape:window-x="-8"
     inkscape:window-y="-8"
     inkscape:window-maximized="1"
     inkscape:current-layer="svg8" />
  <defs
     id="defs2" />
  <metadata
     id="metadata5">
    <rdf:RDF>
      <cc:Work
         rdf:about="">
        <dc:format>image/svg+xml</dc:format>
        <dc:type
           rdf:resource="http://purl.org/dc/dcmitype/StillImage" />
        <dc:title />
      </cc:Work>
    </rdf:RDF>
  </metadata>
  <g
     style="display:none"
     transform="translate(0,-284.29999)"
     id="layer1">
    <rect
       y="284.29999"
       x="9.5367433e-08"
       height="12.7"
       width="12.7"
       id="rect816"
       style="opacity:1;fill:#999999;fill-opacity:1;stroke:none;stroke-width:0.44204882;stroke-opacity:1" />
    <rect
       y="285.35834"
       x="1.0583335"
       height="10.583333"
       width="10.583333"
       id="rect816-8"
       style="opacity:1;fill:#ffffff;fill-opacity:1;stroke:none;stroke-width:0.36837402;stroke-opacity:1" />
  </g>
  <path
     style="opacity:1;fill:#000000;fill-opacity:1;stroke:none;stroke-width:2.8099885;stroke-opacity:1"
     d="M 6 9 C 4.8919997 9 4 9.8919997 4 11 L 4 37 C 4 38.108002 4.8919997 39 6 39 L 42 39 C 43.107999 39 44 38.108002 44 37 L 44 29.015625 L 44 29 L 43.996094 29 C 43.992046 28.754487 43.899269 28.5106 43.710938 28.322266 L 34.677734 19.289062 C 34.485265 19.096593 34.235559 19 33.984375 19 C 33.847968 19 33.712939 19.035032 33.585938 19.091797 A 0.9999999 0.9999999 0 0 1 33.587891 19.080078 C 33.469198 19.129907 33.356699 19.201891 33.259766 19.298828 L 20.298828 32.259766 C 19.899903 32.65869 19.899903 33.302247 20.298828 33.701172 C 20.697753 34.100097 21.341311 34.100097 21.740234 33.701172 L 34.027344 21.414062 L 42 29.388672 L 42 36 C 42 36.554 41.553999 37 41 37 L 7 37 C 6.4459999 37 6 36.554 6 36 L 6 12 C 6 11.446 6.4459999 11 7 11 L 41 11 C 41.553999 11 42 11.446 42 12 L 42 22 A 0.99999993 0.99999993 0 0 0 43 23 A 0.99999993 0.99999993 0 0 0 44 22 L 44 11 C 44 9.8919997 43.107999 9 42 9 L 6 9 z M 12.5 15 A 2.4999999 2.4999999 0 0 0 10 17.5 A 2.4999999 2.4999999 0 0 0 12.5 20 A 2.4999999 2.4999999 0 0 0 15 17.5 A 2.4999999 2.4999999 0 0 0 12.5 15 z M 16.976562 24 C 16.715196 24 16.454181 24.100504 16.253906 24.300781 L 8.3007812 32.253906 C 7.9002321 32.654456 7.9002321 33.298669 8.3007812 33.699219 C 8.701331 34.099768 9.345544 34.099768 9.7460938 33.699219 L 16.992188 26.453125 L 19.232422 28.695312 C 19.637926 29.100818 20.289812 29.100818 20.695312 28.695312 C 21.100817 28.289811 21.100817 27.637926 20.695312 27.232422 L 17.767578 24.304688 C 17.557179 24.094288 17.280351 23.997924 17.005859 24.005859 C 16.995844 24.005568 16.98654 24 16.976562 24 z "
     transform="scale(0.26458333)"
     id="rect815" />
</svg>
