<?xml version="1.0" encoding="UTF-8" standalone="no"?>
<!-- Created with Inkscape (http://www.inkscape.org/) -->

<svg
   xmlns:dc="http://purl.org/dc/elements/1.1/"
   xmlns:cc="http://creativecommons.org/ns#"
   xmlns:rdf="http://www.w3.org/1999/02/22-rdf-syntax-ns#"
   xmlns:svg="http://www.w3.org/2000/svg"
   xmlns="http://www.w3.org/2000/svg"
   xmlns:sodipodi="http://sodipodi.sourceforge.net/DTD/sodipodi-0.dtd"
   xmlns:inkscape="http://www.inkscape.org/namespaces/inkscape"
   width="48"
   height="48"
   viewBox="0 0 12.7 12.7"
   version="1.1"
   id="svg8"
   inkscape:version="0.92.4 (5da689c313, 2019-01-14)"
   sodipodi:docname="bug report.svg">
  <defs
     id="defs2" />
  <sodipodi:namedview
     id="base"
     pagecolor="#ffffff"
     bordercolor="#666666"
     borderopacity="1.0"
     inkscape:pageopacity="0.0"
     inkscape:pageshadow="2"
     inkscape:zoom="9.3146343"
     inkscape:cx="32.613779"
     inkscape:cy="28.654221"
     inkscape:document-units="px"
     inkscape:current-layer="layer1"
     showgrid="true"
     units="px"
     inkscape:window-width="1440"
     inkscape:window-height="837"
     inkscape:window-x="-8"
     inkscape:window-y="-8"
     inkscape:window-maximized="1"
     showguides="false">
    <inkscape:grid
       type="xygrid"
       id="grid815" />
  </sodipodi:namedview>
  <metadata
     id="metadata5">
    <rdf:RDF>
      <cc:Work
         rdf:about="">
        <dc:format>image/svg+xml</dc:format>
        <dc:type
           rdf:resource="http://purl.org/dc/dcmitype/StillImage" />
        <dc:title />
      </cc:Work>
    </rdf:RDF>
  </metadata>
  <g
     inkscape:label="grid"
     inkscape:groupmode="layer"
     id="layer1"
     transform="translate(0,-284.29999)">
    <path
       style="opacity:1;fill:#000000;fill-opacity:1;stroke:none;stroke-width:1.09108925;stroke-opacity:1"
       d="M 6 8 C 5.446 8 5 8.446 5 9 L 5 32 C 5 32.554 5.446 33 6 33 L 15 33 C 15.554 33 16 32.554 16 32 C 16 31.446 15.554 31 15 31 L 7 31 L 7 10 L 41 10 L 41 12 L 10 12 C 9.446 12 9 12.446 9 13 C 9 13.554 9.446 14 10 14 L 42 14 C 42.554 14 43 13.554 43 13 L 43 9 C 43 8.446 42.554 8 42 8 L 6 8 z M 10 16 C 9.4460039 16 9 16.446004 9 17 L 9 28 C 9 28.553996 9.4460039 29 10 29 L 14 29 C 14.553996 29 15 28.553996 15 28 L 15 17 C 15 16.446004 14.553996 16 14 16 L 10 16 z M 19 16 C 18.446 16 18 16.446 18 17 L 18 32 C 18 32.554 18.446 33 19 33 L 33 33 L 33.585938 33 L 38.314453 37.726562 C 38.70619 38.1183 39.336778 38.1183 39.728516 37.726562 C 40.120253 37.334827 40.120253 36.704237 39.728516 36.3125 L 34.707031 31.292969 C 34.508611 31.094549 34.249173 30.997415 33.990234 31 L 33 31 L 20 31 L 20 18 L 41 18 L 41 39 C 41 39.554 41.446 40 42 40 C 42.554 40 43 39.554 43 39 L 43 17 C 43 16.446 42.554 16 42 16 L 19 16 z M 30 19 C 29.446 19 29 19.445997 29 20 L 29 26 C 29 26.554003 29.446 27 30 27 C 30.554 27 31 26.554003 31 26 L 31 20 C 31 19.445997 30.554 19 30 19 z M 30 28 C 29.446 28 29 28.445997 29 29 C 29 29.554003 29.446 30 30 30 C 30.554 30 31 29.554003 31 29 C 31 28.445997 30.554 28 30 28 z "
       transform="matrix(0.26458333,0,0,0.26458333,0,284.29999)"
       id="rect817" />
    <g
       transform="translate(0.7937501,0.13227963)"
       id="g955" />
  </g>
  <g
     inkscape:groupmode="layer"
     id="layer2"
     inkscape:label="Layer 2" />
</svg>
