<?xml version="1.0" encoding="UTF-8" standalone="no"?>
<!-- Created with Inkscape (http://www.inkscape.org/) -->

<svg
   xmlns:dc="http://purl.org/dc/elements/1.1/"
   xmlns:cc="http://creativecommons.org/ns#"
   xmlns:rdf="http://www.w3.org/1999/02/22-rdf-syntax-ns#"
   xmlns:svg="http://www.w3.org/2000/svg"
   xmlns="http://www.w3.org/2000/svg"
   xmlns:sodipodi="http://sodipodi.sourceforge.net/DTD/sodipodi-0.dtd"
   xmlns:inkscape="http://www.inkscape.org/namespaces/inkscape"
   width="48"
   height="48"
   viewBox="0 0 12.7 12.7"
   version="1.1"
   id="svg8"
   inkscape:version="0.92.4 (5da689c313, 2019-01-14)"
   sodipodi:docname="email.svg">
  <defs
     id="defs2" />
  <sodipodi:namedview
     id="base"
     pagecolor="#ffffff"
     bordercolor="#666666"
     borderopacity="1.0"
     inkscape:pageopacity="0.0"
     inkscape:pageshadow="2"
     inkscape:zoom="16.733595"
     inkscape:cx="25.060555"
     inkscape:cy="23.458509"
     inkscape:document-units="px"
     inkscape:current-layer="layer1"
     showgrid="true"
     units="px"
     inkscape:window-width="1440"
     inkscape:window-height="837"
     inkscape:window-x="-8"
     inkscape:window-y="-8"
     inkscape:window-maximized="1">
    <inkscape:grid
       type="xygrid"
       id="grid815" />
  </sodipodi:namedview>
  <metadata
     id="metadata5">
    <rdf:RDF>
      <cc:Work
         rdf:about="">
        <dc:format>image/svg+xml</dc:format>
        <dc:type
           rdf:resource="http://purl.org/dc/dcmitype/StillImage" />
        <dc:title />
      </cc:Work>
    </rdf:RDF>
  </metadata>
  <g
     inkscape:label="grid"
     inkscape:groupmode="layer"
     id="layer1"
     transform="translate(0,-284.29999)">
    <path
       style="color:#000000;font-style:normal;font-variant:normal;font-weight:normal;font-stretch:normal;font-size:medium;line-height:normal;font-family:sans-serif;font-variant-ligatures:normal;font-variant-position:normal;font-variant-caps:normal;font-variant-numeric:normal;font-variant-alternates:normal;font-feature-settings:normal;text-indent:0;text-align:start;text-decoration:none;text-decoration-line:none;text-decoration-style:solid;text-decoration-color:#000000;letter-spacing:normal;word-spacing:normal;text-transform:none;writing-mode:lr-tb;direction:ltr;text-orientation:mixed;dominant-baseline:auto;baseline-shift:baseline;text-anchor:start;white-space:normal;shape-padding:0;clip-rule:nonzero;display:inline;overflow:visible;visibility:visible;opacity:1;isolation:auto;mix-blend-mode:normal;color-interpolation:sRGB;color-interpolation-filters:linearRGB;solid-color:#000000;solid-opacity:1;vector-effect:none;fill:#000000;fill-opacity:1;fill-rule:nonzero;stroke:none;stroke-width:2.00000024;stroke-linecap:round;stroke-linejoin:round;stroke-miterlimit:4;stroke-dasharray:none;stroke-dashoffset:0;stroke-opacity:1;color-rendering:auto;image-rendering:auto;shape-rendering:auto;text-rendering:auto;enable-background:accumulate"
       d="M 6.0019531 7.9980469 A 1.0001001 1.0001001 0 0 0 4.9980469 9.0019531 L 4.9980469 39.001953 A 1.0001001 1.0001001 0 0 0 6.0019531 39.998047 L 42.003906 39.998047 A 1.0001001 1.0001001 0 0 0 43 39.001953 L 43 13.001953 A 1.0001001 1.0001001 0 0 0 41.552734 12.101562 L 24.013672 20.871094 L 9.4707031 13.121094 A 1.000687 1.000687 0 1 0 8.5253906 14.884766 L 23.525391 22.878906 A 1.0001001 1.0001001 0 0 0 24.449219 22.894531 L 40.998047 14.619141 L 40.998047 37.998047 L 6.9980469 37.998047 L 6.9980469 9.9980469 L 42.003906 9.9980469 A 1.0002331 1.0002331 0 1 0 42.003906 7.9980469 L 6.0019531 7.9980469 z M 32.859375 24 C 31.95456 24 31.139706 24.148349 30.414062 24.443359 C 29.697377 24.729693 29.082904 25.128694 28.572266 25.640625 C 28.070586 26.152556 27.680059 26.763113 27.402344 27.474609 C 27.133587 28.177429 27 28.946325 27 29.779297 L 27 30.025391 C 27 30.936453 27.1383 31.76052 27.416016 32.498047 C 27.70269 33.235574 28.110116 33.866111 28.638672 34.386719 C 29.167227 34.907326 29.812741 35.306327 30.574219 35.583984 C 31.335697 35.861642 32.200444 36 33.167969 36 C 33.97424 36 34.727013 35.916812 35.425781 35.751953 C 36.133508 35.595771 36.769595 35.371183 37.333984 35.076172 L 36.957031 34.164062 C 36.4016 34.44172 35.793793 34.650234 35.130859 34.789062 C 34.467925 34.936568 33.798846 35.011719 33.126953 35.011719 C 32.347558 35.011719 31.644678 34.897472 31.017578 34.671875 C 30.399437 34.454955 29.875324 34.134147 29.445312 33.708984 C 29.015301 33.292498 28.684095 32.776208 28.451172 32.160156 C 28.227208 31.535427 28.115234 30.820613 28.115234 30.013672 L 28.115234 29.791016 C 28.115234 29.036135 28.231921 28.360417 28.464844 27.761719 C 28.697766 27.16302 29.019547 26.659762 29.431641 26.251953 C 29.852693 25.835467 30.355193 25.517701 30.9375 25.300781 C 31.519807 25.083862 32.160607 24.976562 32.859375 24.976562 C 33.674605 24.976563 34.394385 25.083862 35.021484 25.300781 C 35.648584 25.509024 36.177411 25.818753 36.607422 26.226562 C 37.037433 26.625695 37.361166 27.110926 37.576172 27.683594 C 37.800136 28.256262 37.912109 28.905915 37.912109 29.634766 L 37.912109 29.779297 C 37.912109 30.213136 37.881069 30.581078 37.818359 30.884766 C 37.755649 31.179776 37.665289 31.422392 37.548828 31.613281 C 37.432367 31.795494 37.289353 31.93081 37.119141 32.017578 C 36.948928 32.095669 36.751308 32.134766 36.527344 32.134766 C 36.24067 32.134766 36.021436 32.051578 35.869141 31.886719 C 35.716845 31.713183 35.640625 31.444503 35.640625 31.080078 L 35.640625 26.980469 L 34.376953 26.980469 L 34.376953 27.658203 C 34.251533 27.44996 34.041726 27.270552 33.746094 27.123047 C 33.450461 26.975541 33.052461 26.902344 32.550781 26.902344 C 31.798262 26.902344 31.200689 27.136922 30.761719 27.605469 C 30.331708 28.065339 30.117188 28.693923 30.117188 29.492188 L 30.117188 30.507812 C 30.117188 31.2974 30.341134 31.925985 30.789062 32.394531 C 31.236991 32.863078 31.891931 33.097656 32.751953 33.097656 C 32.913207 33.097656 33.091974 33.079629 33.289062 33.044922 C 33.486151 33.010215 33.679058 32.950049 33.867188 32.863281 C 34.064276 32.776513 34.243043 32.664219 34.404297 32.525391 C 34.565551 32.386562 34.686951 32.212149 34.767578 32.003906 L 34.78125 32.003906 C 34.915629 32.394362 35.147049 32.681069 35.478516 32.863281 C 35.809983 33.036817 36.155329 33.123047 36.513672 33.123047 C 37.006393 33.123047 37.409106 33.01879 37.722656 32.810547 C 38.045165 32.602304 38.302104 32.338619 38.490234 32.017578 C 38.678364 31.68786 38.807238 31.327956 38.878906 30.9375 C 38.959533 30.538368 39 30.147404 39 29.765625 L 39 29.595703 C 39 28.771408 38.866413 28.017498 38.597656 27.332031 C 38.328899 26.646565 37.933659 26.057077 37.414062 25.5625 C 36.894466 25.067923 36.253666 24.684996 35.492188 24.416016 C 34.730709 24.138358 33.853776 24 32.859375 24 z M 32.845703 28.074219 C 33.11446 28.074219 33.34312 28.113315 33.53125 28.191406 C 33.71938 28.260821 33.87182 28.360083 33.988281 28.490234 C 34.104743 28.611709 34.185676 28.755063 34.230469 28.919922 C 34.28422 29.076104 34.310547 29.240527 34.310547 29.414062 L 34.310547 30.560547 C 34.310547 30.820851 34.27008 31.037402 34.189453 31.210938 C 34.108826 31.384473 33.996853 31.522832 33.853516 31.626953 C 33.719137 31.731075 33.561984 31.804272 33.382812 31.847656 C 33.2126 31.89104 33.033833 31.914062 32.845703 31.914062 C 32.361941 31.914062 32.007167 31.770709 31.783203 31.484375 C 31.559239 31.189364 31.447266 30.793405 31.447266 30.298828 L 31.447266 29.701172 C 31.447266 29.08512 31.568666 28.660055 31.810547 28.425781 C 32.061387 28.191508 32.406733 28.074219 32.845703 28.074219 z "
       transform="matrix(0.26458333,0,0,0.26458333,0,284.29999)"
       id="path819" />
  </g>
  <g
     inkscape:groupmode="layer"
     id="layer2"
     inkscape:label="Layer 2" />
</svg>
