<?xml version="1.0" encoding="UTF-8" standalone="no"?>
<!-- Created with Inkscape (http://www.inkscape.org/) -->

<svg
   xmlns:dc="http://purl.org/dc/elements/1.1/"
   xmlns:cc="http://creativecommons.org/ns#"
   xmlns:rdf="http://www.w3.org/1999/02/22-rdf-syntax-ns#"
   xmlns:svg="http://www.w3.org/2000/svg"
   xmlns="http://www.w3.org/2000/svg"
   xmlns:sodipodi="http://sodipodi.sourceforge.net/DTD/sodipodi-0.dtd"
   xmlns:inkscape="http://www.inkscape.org/namespaces/inkscape"
   width="48"
   height="48"
   viewBox="0 0 12.7 12.7"
   version="1.1"
   id="svg8"
   inkscape:version="0.92.4 (5da689c313, 2019-01-14)"
   sodipodi:docname="project.svg">
  <defs
     id="defs2" />
  <sodipodi:namedview
     id="base"
     pagecolor="#ffffff"
     bordercolor="#666666"
     borderopacity="1.0"
     inkscape:pageopacity="0.0"
     inkscape:pageshadow="2"
     inkscape:zoom="4.6573174"
     inkscape:cx="13.033794"
     inkscape:cy="33.773328"
     inkscape:document-units="px"
     inkscape:current-layer="layer1"
     showgrid="true"
     units="px"
     inkscape:window-width="1440"
     inkscape:window-height="837"
     inkscape:window-x="-8"
     inkscape:window-y="-8"
     inkscape:window-maximized="1"
     showguides="false">
    <inkscape:grid
       type="xygrid"
       id="grid815" />
  </sodipodi:namedview>
  <metadata
     id="metadata5">
    <rdf:RDF>
      <cc:Work
         rdf:about="">
        <dc:format>image/svg+xml</dc:format>
        <dc:type
           rdf:resource="http://purl.org/dc/dcmitype/StillImage" />
        <dc:title />
      </cc:Work>
    </rdf:RDF>
  </metadata>
  <g
     inkscape:label="grid"
     inkscape:groupmode="layer"
     id="layer1"
     transform="translate(0,-284.29999)">
    <path
       style="color:#000000;font-style:normal;font-variant:normal;font-weight:normal;font-stretch:normal;font-size:medium;line-height:normal;font-family:sans-serif;font-variant-ligatures:normal;font-variant-position:normal;font-variant-caps:normal;font-variant-numeric:normal;font-variant-alternates:normal;font-feature-settings:normal;text-indent:0;text-align:start;text-decoration:none;text-decoration-line:none;text-decoration-style:solid;text-decoration-color:#000000;letter-spacing:normal;word-spacing:normal;text-transform:none;writing-mode:lr-tb;direction:ltr;text-orientation:mixed;dominant-baseline:auto;baseline-shift:baseline;text-anchor:start;white-space:normal;shape-padding:0;clip-rule:nonzero;display:inline;overflow:visible;visibility:visible;opacity:1;isolation:auto;mix-blend-mode:normal;color-interpolation:sRGB;color-interpolation-filters:linearRGB;solid-color:#000000;solid-opacity:1;vector-effect:none;fill:#000000;fill-opacity:1;fill-rule:nonzero;stroke:none;stroke-width:2.00000024;stroke-linecap:round;stroke-linejoin:round;stroke-miterlimit:4;stroke-dasharray:none;stroke-dashoffset:0;stroke-opacity:1;color-rendering:auto;image-rendering:auto;shape-rendering:auto;text-rendering:auto;enable-background:accumulate"
       d="M 6.0019531 7.9980469 C 5.4466363 7.9959295 4.9959295 8.4466363 4.9980469 9.0019531 L 4.9980469 32.003906 C 5.0002569 32.556169 5.4496892 33.002106 6.0019531 33 L 8.0019531 33 C 9.3655569 33.03061 9.3655569 30.969385 8.0019531 31 L 6.9980469 31 L 6.9980469 9.9980469 L 40.998047 9.9980469 L 40.998047 11.998047 L 10.001953 11.998047 C 8.6673183 11.998047 8.6673183 14 10.001953 14 L 42.003906 14 C 42.553881 13.997798 42.998875 13.551931 43 13.001953 L 43 9.0019531 C 43.0021 8.4496892 42.556169 8.0002551 42.003906 7.9980469 L 6.0019531 7.9980469 z M 10.998047 16 C 10.445784 16.0022 9.9998471 16.451642 10.001953 17.003906 L 10.001953 39.001953 C 10.004153 39.551168 10.448832 39.995851 10.998047 39.998047 L 42.003906 39.998047 C 42.553121 39.995851 42.997804 39.551168 43 39.001953 L 43 26.001953 C 43 24.667318 40.998047 24.667318 40.998047 26.001953 L 40.998047 37.998047 L 12.003906 37.998047 L 12.003906 18 L 40.998047 18 L 40.998047 20 L 14.003906 20 C 12.669271 20 12.669271 22.001953 14.003906 22.001953 L 42.003906 22.001953 C 42.556169 21.999745 43.002106 21.550311 43 20.998047 L 43 17.003906 C 43.002106 16.451642 42.556169 16.002208 42.003906 16 L 10.998047 16 z M 15 23 C 14.446 23 14 23.446 14 24 C 14 24.554 14.446 25 15 25 L 22 25 C 22.554 25 23 24.554 23 24 C 23 23.446 22.554 23 22 23 L 15 23 z M 18 26 C 17.446 26 17 26.446 17 27 C 17 27.554 17.446 28 18 28 L 28 28 C 28.554 28 29 27.554 29 27 C 29 26.446 28.554 26 28 26 L 18 26 z M 21 29 C 20.446 29 20 29.446 20 30 C 20 30.554 20.446 31 21 31 L 29 31 C 29.554 31 30 30.554 30 30 C 30 29.446 29.554 29 29 29 L 21 29 z M 21 32 C 20.446 32 20 32.446 20 33 C 20 33.554 20.446 34 21 34 L 29 34 C 29.554 34 30 33.554 30 33 C 30 32.446 29.554 32 29 32 L 21 32 z M 18 35 C 17.446 35 17 35.446 17 36 C 17 36.554 17.446 37 18 37 L 25 37 C 25.554 37 26 36.554 26 36 C 26 35.446 25.554 35 25 35 L 18 35 z "
       transform="matrix(0.26458333,0,0,0.26458333,0,284.29999)"
       id="path883" />
  </g>
  <g
     inkscape:groupmode="layer"
     id="layer2"
     inkscape:label="Layer 2" />
</svg>
