<?xml version="1.0" encoding="UTF-8" standalone="no"?>
<!-- Created with Inkscape (http://www.inkscape.org/) -->

<svg
   xmlns:dc="http://purl.org/dc/elements/1.1/"
   xmlns:cc="http://creativecommons.org/ns#"
   xmlns:rdf="http://www.w3.org/1999/02/22-rdf-syntax-ns#"
   xmlns:svg="http://www.w3.org/2000/svg"
   xmlns="http://www.w3.org/2000/svg"
   xmlns:sodipodi="http://sodipodi.sourceforge.net/DTD/sodipodi-0.dtd"
   xmlns:inkscape="http://www.inkscape.org/namespaces/inkscape"
   width="48"
   height="48"
   viewBox="0 0 12.7 12.7"
   version="1.1"
   id="svg8"
   inkscape:version="0.92.4 (5da689c313, 2019-01-14)"
   sodipodi:docname="email.svg">
  <defs
     id="defs2" />
  <sodipodi:namedview
     id="base"
     pagecolor="#ffffff"
     bordercolor="#666666"
     borderopacity="1.0"
     inkscape:pageopacity="0.0"
     inkscape:pageshadow="2"
     inkscape:zoom="9.6288581"
     inkscape:cx="31.733282"
     inkscape:cy="31.567709"
     inkscape:document-units="px"
     inkscape:current-layer="layer1"
     showgrid="true"
     units="px"
     inkscape:window-width="1440"
     inkscape:window-height="837"
     inkscape:window-x="-8"
     inkscape:window-y="-8"
     inkscape:window-maximized="1">
    <inkscape:grid
       type="xygrid"
       id="grid103991" />
  </sodipodi:namedview>
  <metadata
     id="metadata5">
    <rdf:RDF>
      <cc:Work
         rdf:about="">
        <dc:format>image/svg+xml</dc:format>
        <dc:type
           rdf:resource="http://purl.org/dc/dcmitype/StillImage" />
        <dc:title />
      </cc:Work>
    </rdf:RDF>
  </metadata>
  <g
     inkscape:label="grid"
     inkscape:groupmode="layer"
     id="layer1"
     transform="translate(0,-284.29999)">
    <path
       style="fill:#000000;stroke-width:0.05644447"
       d=""
       id="path103948"
       inkscape:connector-curvature="0" />
    <path
       style="fill:#000000;stroke-width:0.05644447"
       d=""
       id="path103946"
       inkscape:connector-curvature="0" />
    <path
       style="stroke-width:0.09999999;fill:#000000"
       d="M 9 4 C 6.24 4 4 6.24 4 9 L 4 39 C 4 41.76 6.24 44 9 44 L 39 44 C 41.76 44 44 41.76 44 39 L 44 9 C 44 6.24 41.76 4 39 4 L 9 4 z M 7.9941406 9.9980469 L 39.994141 9.9980469 A 1.000252 1.000252 0 1 1 39.994141 11.998047 L 8.9902344 11.998047 L 8.9902344 35.998047 L 38.990234 35.998047 L 38.990234 16.619141 L 24.441406 23.898438 A 1.0001001 1.0001001 0 0 1 23.519531 23.882812 L 10.519531 16.878906 A 1.0001001 1.0001001 0 1 1 11.464844 15.121094 L 24.013672 21.875 L 39.544922 14.101562 A 1.0001001 1.0001001 0 0 1 40.992188 15.003906 L 40.992188 37.001953 A 1.0001001 1.0001001 0 0 1 39.994141 37.998047 L 7.9941406 37.998047 A 1.0001001 1.0001001 0 0 1 6.9902344 37.001953 L 6.9902344 11.001953 A 1.0001001 1.0001001 0 0 1 7.9941406 9.9980469 z "
       transform="matrix(0.26458333,0,0,0.26458333,0,284.29999)"
       id="path4" />
  </g>
  <g
     inkscape:groupmode="layer"
     id="layer2"
     inkscape:label="Layer 2" />
</svg>
