<?xml version="1.0" encoding="UTF-8" standalone="no"?>
<!-- Created with Inkscape (http://www.inkscape.org/) -->

<svg
   xmlns:dc="http://purl.org/dc/elements/1.1/"
   xmlns:cc="http://creativecommons.org/ns#"
   xmlns:rdf="http://www.w3.org/1999/02/22-rdf-syntax-ns#"
   xmlns:svg="http://www.w3.org/2000/svg"
   xmlns="http://www.w3.org/2000/svg"
   xmlns:sodipodi="http://sodipodi.sourceforge.net/DTD/sodipodi-0.dtd"
   xmlns:inkscape="http://www.inkscape.org/namespaces/inkscape"
   width="48"
   height="48"
   viewBox="0 0 12.7 12.7"
   version="1.1"
   id="svg8"
   inkscape:version="0.92.4 (5da689c313, 2019-01-14)"
   sodipodi:docname="facebook.svg">
  <defs
     id="defs2">
    <clipPath
       id="clipPath4674"
       clipPathUnits="userSpaceOnUse">
      <path
         id="path4676"
         d="M 0,500 1024,500 1024,0 0,0 0,500 Z" />
    </clipPath>
  </defs>
  <sodipodi:namedview
     id="base"
     pagecolor="#ffffff"
     bordercolor="#666666"
     borderopacity="1.0"
     inkscape:pageopacity="0.0"
     inkscape:pageshadow="2"
     inkscape:zoom="7.5037677"
     inkscape:cx="28.670729"
     inkscape:cy="26.227978"
     inkscape:document-units="px"
     inkscape:current-layer="layer1"
     showgrid="true"
     units="px"
     inkscape:window-width="1440"
     inkscape:window-height="837"
     inkscape:window-x="-8"
     inkscape:window-y="-8"
     inkscape:window-maximized="1">
    <inkscape:grid
       type="xygrid"
       id="grid103991" />
  </sodipodi:namedview>
  <metadata
     id="metadata5">
    <rdf:RDF>
      <cc:Work
         rdf:about="">
        <dc:format>image/svg+xml</dc:format>
        <dc:type
           rdf:resource="http://purl.org/dc/dcmitype/StillImage" />
        <dc:title />
      </cc:Work>
    </rdf:RDF>
  </metadata>
  <g
     inkscape:label="grid"
     inkscape:groupmode="layer"
     id="layer1"
     transform="translate(0,-284.29999)">
    <path
       style="fill:#000000;stroke-width:0.05644447"
       d=""
       id="path103948"
       inkscape:connector-curvature="0" />
    <path
       style="fill:#000000;stroke-width:0.05644447"
       d=""
       id="path103946"
       inkscape:connector-curvature="0" />
    <g
       id="layer1-2"
       transform="matrix(0.26458333,0,0,0.26458333,-45.583777,136.82784)"
       style="fill:#000000">
      <g
         id="g4670"
         transform="matrix(0.1498728,0,0,-0.1498728,157.76786,619.44278)"
         style="fill:#000000">
        <g
           clip-path="url(#clipPath4674)"
           id="g4672"
           style="fill:#000000">
          <path
             style="fill:#000000;fill-opacity:1;fill-rule:nonzero;stroke:none;stroke-width:0.14987279"
             d="M 6.2070312 4 C 4.9875163 4 4 4.9875163 4 6.2070312 L 4 41.792969 C 4 43.012034 4.9875163 44 6.2070312 44 L 25.365234 44 L 25.365234 28.509766 L 20.152344 28.509766 L 20.152344 22.472656 L 25.365234 22.472656 L 25.365234 18.021484 C 25.365234 12.854919 28.519868 10.041016 33.128906 10.041016 C 35.336533 10.041016 37.234079 10.205859 37.787109 10.279297 L 37.787109 15.677734 L 34.591797 15.679688 C 32.085324 15.679688 31.599609 16.871324 31.599609 18.619141 L 31.599609 22.472656 L 37.578125 22.472656 L 36.798828 28.509766 L 31.599609 28.509766 L 31.599609 44 L 41.792969 44 C 43.012034 44 44 43.012034 44 41.792969 L 44 6.2070312 C 44 4.9875163 43.012034 4 41.792969 4 L 6.2070312 4 z "
             transform="matrix(6.6723249,0,0,-6.6723249,96.864031,414.13597)"
             id="path4680" />
        </g>
      </g>
    </g>
  </g>
  <g
     inkscape:groupmode="layer"
     id="layer2"
     inkscape:label="Layer 2" />
</svg>
