<?xml version="1.0" encoding="UTF-8" standalone="no"?>
<!-- Created with Inkscape (http://www.inkscape.org/) -->

<svg
   xmlns:dc="http://purl.org/dc/elements/1.1/"
   xmlns:cc="http://creativecommons.org/ns#"
   xmlns:rdf="http://www.w3.org/1999/02/22-rdf-syntax-ns#"
   xmlns:svg="http://www.w3.org/2000/svg"
   xmlns="http://www.w3.org/2000/svg"
   xmlns:sodipodi="http://sodipodi.sourceforge.net/DTD/sodipodi-0.dtd"
   xmlns:inkscape="http://www.inkscape.org/namespaces/inkscape"
   width="48"
   height="48"
   viewBox="0 0 12.7 12.7"
   version="1.1"
   id="svg8"
   inkscape:version="0.92.4 (5da689c313, 2019-01-14)"
   sodipodi:docname="github.svg">
  <defs
     id="defs2" />
  <sodipodi:namedview
     id="base"
     pagecolor="#ffffff"
     bordercolor="#666666"
     borderopacity="1.0"
     inkscape:pageopacity="0.0"
     inkscape:pageshadow="2"
     inkscape:zoom="9.6288578"
     inkscape:cx="34.399214"
     inkscape:cy="28.663801"
     inkscape:document-units="px"
     inkscape:current-layer="layer1"
     showgrid="true"
     units="px"
     inkscape:window-width="1440"
     inkscape:window-height="837"
     inkscape:window-x="-8"
     inkscape:window-y="-8"
     inkscape:window-maximized="1">
    <inkscape:grid
       type="xygrid"
       id="grid103991" />
  </sodipodi:namedview>
  <metadata
     id="metadata5">
    <rdf:RDF>
      <cc:Work
         rdf:about="">
        <dc:format>image/svg+xml</dc:format>
        <dc:type
           rdf:resource="http://purl.org/dc/dcmitype/StillImage" />
        <dc:title />
      </cc:Work>
    </rdf:RDF>
  </metadata>
  <g
     inkscape:label="grid"
     inkscape:groupmode="layer"
     id="layer1"
     transform="translate(0,-284.29999)">
    <path
       style="fill:#000000;stroke-width:0.05644447"
       d=""
       id="path103948"
       inkscape:connector-curvature="0" />
    <path
       style="fill:#000000;stroke-width:0.05644447"
       d=""
       id="path103946"
       inkscape:connector-curvature="0" />
    <path
       inkscape:connector-curvature="0"
       d="M 10.507738,285.35832 H 2.1922625 c -0.626023,0 -1.133929,0.5079 -1.133929,1.13393 v 8.31547 c 0,0.62602 0.507906,1.13394 1.133929,1.13394 h 8.3154765 c 0.626023,0 1.133927,-0.50791 1.133927,-1.13394 v -8.31547 c 0,-0.62603 -0.507905,-1.13393 -1.133928,-1.13393 z m -2.8986045,9.06434 c -0.198437,0.0354 -0.27167,-0.0874 -0.27167,-0.18899 0,-0.12756 0.0047,-0.77958 0.0047,-1.30637 0,-0.36854 -0.122843,-0.6024 -0.266946,-0.72524 0.87407,-0.0969 1.795387,-0.21734 1.795387,-1.72688 0,-0.42995 -0.153553,-0.64492 -0.403962,-0.92132 0.04016,-0.10158 0.174814,-0.51971 -0.04016,-1.06306 -0.328367,-0.10158 -1.079595,0.42287 -1.079595,0.42287 -0.31183,-0.0874 -0.649646,-0.1323 -0.982738,-0.1323 -0.333091,0 -0.670908,0.0449 -0.982738,0.1323 0,0 -0.751228,-0.52445 -1.079594,-0.42287 -0.214974,0.54098 -0.08268,0.95912 -0.04016,1.06306 -0.25041,0.2764 -0.368527,0.49137 -0.368527,0.92132 0,1.50245 0.881157,1.63002 1.755227,1.72688 -0.113393,0.10158 -0.214974,0.27639 -0.250409,0.52679 -0.224424,0.10159 -0.798475,0.27641 -1.141016,-0.32835 -0.214974,-0.37326 -0.6024,-0.40397 -0.6024,-0.40397 -0.382701,-0.005 -0.02599,0.24095 -0.02599,0.24095 0.255134,0.11812 0.434673,0.57169 0.434673,0.57169 0.229148,0.70162 1.325279,0.46539 1.325279,0.46539 0,0.32836 0.0047,0.86226 0.0047,0.95911 0,0.10159 -0.07087,0.22443 -0.27167,0.18899 -1.559152,-0.52208 -2.650558,-2.00564 -2.650558,-3.7396 0,-2.16863 1.65837,-3.8152 3.827009,-3.8152 2.168638,0 3.9262265,1.64657 3.9262265,3.8152 0.0024,1.73397 -1.0559705,3.21988 -2.6151215,3.7396 z m -2.317467,-1.4434 c -0.04488,0.009 -0.08741,-0.009 -0.09213,-0.0402 -0.0047,-0.0354 0.02599,-0.0661 0.07087,-0.0756 0.04489,-0.005 0.08741,0.0142 0.09213,0.0449 0.0071,0.0307 -0.02362,0.0614 -0.07087,0.0709 z m -0.224423,-0.0213 c 0,0.0307 -0.03544,0.0567 -0.08268,0.0567 -0.05197,0.005 -0.08741,-0.0213 -0.08741,-0.0567 0,-0.0307 0.03543,-0.0567 0.08268,-0.0567 0.04489,-0.005 0.08741,0.0213 0.08741,0.0567 z m -0.323642,-0.026 c -0.0094,0.0307 -0.0567,0.0449 -0.09686,0.0307 -0.04489,-0.009 -0.0756,-0.0449 -0.06615,-0.0756 0.0094,-0.0307 0.0567,-0.0449 0.09686,-0.0354 0.04725,0.0142 0.07796,0.0496 0.06615,0.0803 z m -0.290569,-0.12757 c -0.02126,0.026 -0.06615,0.0213 -0.101581,-0.0142 -0.03544,-0.0307 -0.04489,-0.0756 -0.02126,-0.0968 0.02126,-0.026 0.06614,-0.0213 0.101581,0.0142 0.03071,0.0307 0.04252,0.078 0.02126,0.0969 z m -0.214974,-0.21498 c -0.02126,0.0142 -0.06142,0 -0.08741,-0.0354 -0.02599,-0.0354 -0.02599,-0.0756 0,-0.0921 0.02599,-0.0213 0.06615,-0.005 0.08741,0.0307 0.02599,0.0354 0.02599,0.0779 0,0.0969 z m -0.153553,-0.22914 c -0.02126,0.0213 -0.0567,0.009 -0.08268,-0.0142 -0.02599,-0.0307 -0.03071,-0.0661 -0.0095,-0.0827 0.02126,-0.0213 0.0567,-0.009 0.08268,0.0142 0.02598,0.0307 0.03071,0.0662 0.0094,0.0827 z m -0.158278,-0.17482 c -0.0094,0.0213 -0.04016,0.026 -0.06615,0.009 -0.03071,-0.0142 -0.04488,-0.0402 -0.03544,-0.0614 0.0095,-0.0142 0.03544,-0.0213 0.06615,-0.009 0.03071,0.0165 0.04488,0.0425 0.03543,0.0614 z"
       id="path2"
       style="stroke-width:0.02362351;fill:#000000" />
  </g>
  <g
     inkscape:groupmode="layer"
     id="layer2"
     inkscape:label="Layer 2" />
</svg>
