<?xml version="1.0" encoding="UTF-8" standalone="no"?>
<!-- Created with Inkscape (http://www.inkscape.org/) -->

<svg
   xmlns:dc="http://purl.org/dc/elements/1.1/"
   xmlns:cc="http://creativecommons.org/ns#"
   xmlns:rdf="http://www.w3.org/1999/02/22-rdf-syntax-ns#"
   xmlns:svg="http://www.w3.org/2000/svg"
   xmlns="http://www.w3.org/2000/svg"
   xmlns:sodipodi="http://sodipodi.sourceforge.net/DTD/sodipodi-0.dtd"
   xmlns:inkscape="http://www.inkscape.org/namespaces/inkscape"
   width="48"
   height="48"
   viewBox="0 0 12.7 12.7"
   version="1.1"
   id="svg8"
   inkscape:version="0.92.4 (5da689c313, 2019-01-14)"
   sodipodi:docname="naver blog.svg">
  <defs
     id="defs2">
    <clipPath
       id="clipPath4674"
       clipPathUnits="userSpaceOnUse">
      <path
         id="path4676"
         d="M 0,500 1024,500 1024,0 0,0 0,500 Z" />
    </clipPath>
  </defs>
  <sodipodi:namedview
     id="base"
     pagecolor="#ffffff"
     bordercolor="#666666"
     borderopacity="1.0"
     inkscape:pageopacity="0.0"
     inkscape:pageshadow="2"
     inkscape:zoom="11.211161"
     inkscape:cx="19.480487"
     inkscape:cy="23.359322"
     inkscape:document-units="px"
     inkscape:current-layer="layer1"
     showgrid="true"
     units="px"
     inkscape:window-width="1440"
     inkscape:window-height="837"
     inkscape:window-x="-8"
     inkscape:window-y="-8"
     inkscape:window-maximized="1">
    <inkscape:grid
       type="xygrid"
       id="grid103991" />
  </sodipodi:namedview>
  <metadata
     id="metadata5">
    <rdf:RDF>
      <cc:Work
         rdf:about="">
        <dc:format>image/svg+xml</dc:format>
        <dc:type
           rdf:resource="http://purl.org/dc/dcmitype/StillImage" />
        <dc:title />
      </cc:Work>
    </rdf:RDF>
  </metadata>
  <g
     inkscape:label="grid"
     inkscape:groupmode="layer"
     id="layer1"
     transform="translate(0,-284.29999)">
    <path
       style="fill:#000000;stroke-width:0.05644447"
       d=""
       id="path103948"
       inkscape:connector-curvature="0" />
    <path
       style="fill:#000000;stroke-width:0.05644447"
       d=""
       id="path103946"
       inkscape:connector-curvature="0" />
    <g
       clip-path="url(#clipPath4674)"
       id="g4672"
       transform="matrix(0.03965384,0,0,-0.03965384,-3.8410312,300.72207)" />
    <path
       style="fill:#000000;fill-opacity:1;fill-rule:nonzero;stroke:none;stroke-width:0.15976992"
       d="M 12 4 C 7.5828409 4 4 7.581241 4 12 L 4 36.001953 C 4 40.418936 7.5828409 44 12 44 L 35.998047 44 C 40.418723 44 44 40.418936 44 36.001953 L 44 12 C 44 7.581241 40.418723 4 35.998047 4 L 12 4 z M 12.283203 7.0585938 L 35.716797 7.0585938 C 38.703856 7.0585938 41.126953 9.4879157 41.126953 12.486328 L 41.126953 25.367188 C 41.126953 28.365599 38.703856 30.794922 35.716797 30.794922 L 27.644531 30.794922 L 24.890625 35.279297 C 24.890625 35.279297 24.865897 35.332804 24.796875 35.414062 C 24.634708 35.687247 24.34111 35.873047 24 35.873047 C 23.657773 35.873047 23.360106 35.684109 23.199219 35.408203 C 23.139143 35.333746 23.109375 35.28125 23.109375 35.28125 L 20.355469 30.794922 L 12.283203 30.794922 C 9.2951863 30.794922 6.8730469 28.365599 6.8730469 25.367188 L 6.8730469 12.486328 C 6.8730469 9.4879157 9.2951863 7.0585937 12.283203 7.0585938 z M 18.109375 13.800781 L 18.109375 15.822266 C 18.109375 15.822266 19.066406 15.778159 19.066406 17.560547 L 19.066406 22.732422 L 21.087891 22.732422 L 21.087891 17.082031 C 21.087891 17.082031 21.174083 13.800781 18.109375 13.800781 z M 10.601562 13.996094 L 10.601562 22.732422 L 12.720703 22.732422 L 12.720703 22.048828 C 12.720703 22.048828 13.219245 22.951172 14.480469 22.951172 C 14.480469 22.951172 17.435547 22.84071 17.435547 19.689453 C 17.435547 19.689453 17.327091 16.496094 14.480469 16.496094 C 14.480469 16.496094 13.544845 16.494939 12.697266 17.320312 L 12.697266 13.996094 L 10.601562 13.996094 z M 26.029297 16.523438 C 26.029297 16.523438 22.566406 16.522612 22.566406 19.757812 C 22.566406 19.757812 22.452528 22.951172 26.029297 22.951172 C 26.029297 22.951172 29.574219 22.946222 29.574219 19.757812 C 29.574219 19.757812 29.689306 16.523438 26.029297 16.523438 z M 33.601562 16.523438 C 33.601562 16.523438 30.634766 16.397267 30.634766 19.736328 C 30.634766 19.736328 30.601646 22.847656 33.519531 22.847656 C 33.519531 22.847656 34.709946 22.896463 35.361328 22.048828 L 35.361328 22.537109 C 35.361328 22.537109 35.507219 24.070312 34.023438 24.070312 L 33.519531 24.070312 L 33.519531 25.927734 L 34.333984 25.927734 C 34.333984 25.927734 37.398437 25.96035 37.398438 22.650391 L 37.398438 16.734375 L 35.361328 16.734375 L 35.361328 17.320312 C 35.361328 17.320312 34.758457 16.523438 33.601562 16.523438 z M 14.019531 18.410156 C 14.76358 18.410156 15.367187 19.013926 15.367188 19.757812 C 15.367188 20.502342 14.76358 21.105469 14.019531 21.105469 C 13.275802 21.105469 12.671875 20.502342 12.671875 19.757812 C 12.671875 19.013926 13.275802 18.410156 14.019531 18.410156 z M 26.03125 18.410156 C 26.775139 18.410156 27.378906 19.013926 27.378906 19.757812 C 27.378906 20.502342 26.775139 21.105469 26.03125 21.105469 C 25.287202 21.105469 24.683594 20.502342 24.683594 19.757812 C 24.683594 19.013926 25.287202 18.410156 26.03125 18.410156 z M 34.107422 18.410156 C 34.851311 18.410156 35.455078 19.013926 35.455078 19.757812 C 35.455078 20.502342 34.851311 21.105469 34.107422 21.105469 C 33.363054 21.105469 32.759766 20.502342 32.759766 19.757812 C 32.759766 19.013926 33.363054 18.410156 34.107422 18.410156 z "
       transform="matrix(0.26458333,0,0,0.26458333,0,284.29999)"
       id="path62" />
  </g>
  <g
     inkscape:groupmode="layer"
     id="layer2"
     inkscape:label="Layer 2" />
  <style
     id="style3"
     type="text/css">
	.st0{fill:#FF0000;}
	.st1{fill:#FFFFFF;}
	.st2{fill:#282828;}
</style>
</svg>
