<?xml version="1.0" encoding="UTF-8" standalone="no"?>
<!-- Created with Inkscape (http://www.inkscape.org/) -->

<svg
   xmlns:dc="http://purl.org/dc/elements/1.1/"
   xmlns:cc="http://creativecommons.org/ns#"
   xmlns:rdf="http://www.w3.org/1999/02/22-rdf-syntax-ns#"
   xmlns:svg="http://www.w3.org/2000/svg"
   xmlns="http://www.w3.org/2000/svg"
   xmlns:sodipodi="http://sodipodi.sourceforge.net/DTD/sodipodi-0.dtd"
   xmlns:inkscape="http://www.inkscape.org/namespaces/inkscape"
   width="48"
   height="48"
   viewBox="0 0 12.7 12.7"
   version="1.1"
   id="svg8"
   inkscape:version="0.92.4 (5da689c313, 2019-01-14)"
   sodipodi:docname="twitter.svg">
  <defs
     id="defs2" />
  <sodipodi:namedview
     id="base"
     pagecolor="#ffffff"
     bordercolor="#666666"
     borderopacity="1.0"
     inkscape:pageopacity="0.0"
     inkscape:pageshadow="2"
     inkscape:zoom="10.61193"
     inkscape:cx="33.934942"
     inkscape:cy="25.340681"
     inkscape:document-units="px"
     inkscape:current-layer="layer1"
     showgrid="true"
     units="px"
     inkscape:window-width="1440"
     inkscape:window-height="837"
     inkscape:window-x="-8"
     inkscape:window-y="-8"
     inkscape:window-maximized="1">
    <inkscape:grid
       type="xygrid"
       id="grid103991" />
  </sodipodi:namedview>
  <metadata
     id="metadata5">
    <rdf:RDF>
      <cc:Work
         rdf:about="">
        <dc:format>image/svg+xml</dc:format>
        <dc:type
           rdf:resource="http://purl.org/dc/dcmitype/StillImage" />
        <dc:title />
      </cc:Work>
    </rdf:RDF>
  </metadata>
  <g
     inkscape:label="grid"
     inkscape:groupmode="layer"
     id="layer1"
     transform="translate(0,-284.29999)">
    <path
       style="fill:#000000;stroke-width:0.05644447"
       d=""
       id="path103948"
       inkscape:connector-curvature="0" />
    <path
       style="fill:#000000;stroke-width:0.05644447"
       d=""
       id="path103946"
       inkscape:connector-curvature="0" />
    <path
       inkscape:connector-curvature="0"
       class="st0"
       d="M 10.31875,295.94166 H 2.3812505 c -0.73025,0 -1.322917,-0.59267 -1.322917,-1.32292 v -7.9375 c 0,-0.73025 0.592667,-1.32291 1.322917,-1.32291 H 10.31875 c 0.73025,0 1.322916,0.59266 1.322916,1.32291 v 7.9375 c 0,0.73025 -0.592666,1.32292 -1.322916,1.32292 z m -5.1964165,-2.6035 c 2.495021,0 3.860271,-2.06904 3.860271,-3.86027 0,-0.0582 0,-0.11642 -0.0026,-0.17463 0.264583,-0.1905 0.494771,-0.43127 0.677333,-0.70379 -0.243416,0.10848 -0.505354,0.17992 -0.78052,0.21431 0.280458,-0.16668 0.49477,-0.43391 0.597958,-0.75141 -0.261938,0.1561 -0.552979,0.26723 -0.862542,0.32808 -0.248708,-0.26458 -0.600604,-0.42862 -0.989541,-0.42862 -0.748771,0 -1.357313,0.60854 -1.357313,1.35731 0,0.10583 0.01323,0.20902 0.0344,0.30955 -1.127125,-0.0556 -2.12725,-0.59796 -2.796646,-1.41816 -0.116417,0.20109 -0.182563,0.43392 -0.182563,0.68263 0,0.47096 0.240771,0.88635 0.60325,1.12977 -0.22225,-0.008 -0.43127,-0.0688 -0.613833,-0.16933 0,0.005 0,0.0106 0,0.0185 0,0.65616 0.468313,1.2065 1.087438,1.33085 -0.113771,0.0317 -0.232834,0.0476 -0.357188,0.0476 -0.08731,0 -0.171979,-0.008 -0.254,-0.0238 0.171979,0.53975 0.674688,0.93134 1.267354,0.94192 -0.465666,0.36513 -1.050396,0.58208 -1.685396,0.58208 -0.108479,0 -0.216958,-0.005 -0.322791,-0.0185 0.597958,0.38099 1.312333,0.6059 2.076979,0.6059"
       id="path4"
       style="stroke-width:0.02645833;fill:#000000" />
  </g>
  <g
     inkscape:groupmode="layer"
     id="layer2"
     inkscape:label="Layer 2" />
</svg>
