<?xml version="1.0" encoding="UTF-8" standalone="no"?>
<!-- Created with Inkscape (http://www.inkscape.org/) -->

<svg
   xmlns:dc="http://purl.org/dc/elements/1.1/"
   xmlns:cc="http://creativecommons.org/ns#"
   xmlns:rdf="http://www.w3.org/1999/02/22-rdf-syntax-ns#"
   xmlns:svg="http://www.w3.org/2000/svg"
   xmlns="http://www.w3.org/2000/svg"
   xmlns:sodipodi="http://sodipodi.sourceforge.net/DTD/sodipodi-0.dtd"
   xmlns:inkscape="http://www.inkscape.org/namespaces/inkscape"
   width="48"
   height="48"
   viewBox="0 0 12.7 12.7"
   version="1.1"
   id="svg8"
   inkscape:version="0.92.4 (5da689c313, 2019-01-14)"
   sodipodi:docname="youtube.svg">
  <defs
     id="defs2">
    <clipPath
       id="clipPath4674"
       clipPathUnits="userSpaceOnUse">
      <path
         id="path4676"
         d="M 0,500 1024,500 1024,0 0,0 0,500 Z" />
    </clipPath>
  </defs>
  <sodipodi:namedview
     id="base"
     pagecolor="#ffffff"
     bordercolor="#666666"
     borderopacity="1.0"
     inkscape:pageopacity="0.0"
     inkscape:pageshadow="2"
     inkscape:zoom="9.6288579"
     inkscape:cx="21.973986"
     inkscape:cy="18.496198"
     inkscape:document-units="px"
     inkscape:current-layer="layer1"
     showgrid="true"
     units="px"
     inkscape:window-width="1440"
     inkscape:window-height="837"
     inkscape:window-x="-8"
     inkscape:window-y="-8"
     inkscape:window-maximized="1">
    <inkscape:grid
       type="xygrid"
       id="grid103991" />
  </sodipodi:namedview>
  <metadata
     id="metadata5">
    <rdf:RDF>
      <cc:Work
         rdf:about="">
        <dc:format>image/svg+xml</dc:format>
        <dc:type
           rdf:resource="http://purl.org/dc/dcmitype/StillImage" />
        <dc:title />
      </cc:Work>
    </rdf:RDF>
  </metadata>
  <g
     inkscape:label="grid"
     inkscape:groupmode="layer"
     id="layer1"
     transform="translate(0,-284.29999)">
    <path
       style="fill:#000000;stroke-width:0.05644447"
       d=""
       id="path103948"
       inkscape:connector-curvature="0" />
    <path
       style="fill:#000000;stroke-width:0.05644447"
       d=""
       id="path103946"
       inkscape:connector-curvature="0" />
    <g
       id="g5"
       transform="matrix(0.087177,0,0,0.087177,1.0583328,286.94497)"
       style="fill:#000000">
      <path
         inkscape:connector-curvature="0"
         id="path7"
         transform="matrix(3.0350127,0,0,3.0350127,-12.14005,-30.340304)"
         d="m 24,10 c 0,0 -12.520255,6.89e-4 -15.6503906,0.824219 -1.6803883,0.461176 -3.0641076,1.843699 -3.5253906,3.55664 C 4.000499,17.510271 4,24 4,24 c 0,0 4.99e-4,6.52267 0.8242188,9.619141 0.461283,1.712941 1.8120535,3.06226 3.5253906,3.523437 C 11.512693,37.999049 24,38 24,38 c 0,0 12.520255,-6.89e-4 15.650391,-0.824219 1.713337,-0.461176 3.064107,-1.810496 3.52539,-3.523437 C 43.999501,30.522932 44,24.033203 44,24.033203 c 0,0 0.03245,-6.522932 -0.824219,-9.652344 -0.461283,-1.712941 -1.812053,-3.062261 -3.52539,-3.523437 C 36.520255,10.000951 24,10 24,10 Z m -3.986328,8 10,6 -10,6 z"
         style="fill:#000000;stroke-width:0.32944983" />
    </g>
  </g>
  <g
     inkscape:groupmode="layer"
     id="layer2"
     inkscape:label="Layer 2" />
  <style
     id="style3"
     type="text/css">
	.st0{fill:#FF0000;}
	.st1{fill:#FFFFFF;}
	.st2{fill:#282828;}
</style>
</svg>
